<svg xmlns="http://www.w3.org/2000/svg" viewBox="0 0 125.995 122.794">
  <defs>
    <style>
      .cls-1 {
        fill: none;
        stroke: #707070;
        stroke-width: 3px;
      }
    </style>
  </defs>
  <path id="sent-mail" class="cls-1" d="M93,12.8a1.4,1.4,0,0,0-1.51-.217L.808,54.721a1.4,1.4,0,0,0-.027,2.521L26.444,69.837A1.4,1.4,0,0,0,27.9,69.7L52.847,51.053,33.26,71.2a1.4,1.4,0,0,0-.391,1.081l1.95,25.4a1.4,1.4,0,0,0,2.451.806L50.891,82.7l16.838,8.045a1.4,1.4,0,0,0,1.935-.842L93.411,14.274A1.4,1.4,0,0,0,93,12.8Z" transform="matrix(0.899, 0.438, -0.438, 0.899, 45.392, -9.155)"/>
</svg>
